<svg xmlns="http://www.w3.org/2000/svg" width="256" height="256"><path fill="#1976D2" fill-opacity=".016" fill-rule="evenodd" d="M0 128.004v128.004l128.25-.254 128.25-.254.254-127.75L257.008 0H0v128.004m.485.496c0 70.4.119 99.053.265 63.672.146-35.38.146-92.98 0-128C.604 29.153.485 58.1.485 128.5"/><path fill="#1976D2" fill-opacity=".155" fill-rule="evenodd" d="M112.25.674c-3.987.228-7.25.78-7.25 1.227 0 .448-2.793 1.106-6.206 1.463-3.414.357-6.654 1.096-7.2 1.642-.547.547-2.002.994-3.235.994s-2.488.4-2.791.889c-.302.489-1.791 1.189-3.309 1.556-3.805.92-8.259 2.91-8.259 3.691 0 .356-1.21.951-2.689 1.322-1.479.371-3.841 1.496-5.25 2.499-1.409 1.003-2.907 1.859-3.329 1.902-1.54.157-9.486 5.212-11.24 7.15C50.501 26.104 49.269 27 48.755 27 47.769 27 25 50.069 25 51.069c0 .32-1.111 1.626-2.469 2.902-1.358 1.276-2.263 2.653-2.011 3.061.252.408-.238 1.319-1.089 2.025s-2.174 2.67-2.941 4.363c-.767 1.694-2.715 5.372-4.329 8.174-1.613 2.802-3.246 6.514-3.627 8.25C8.153 81.58 7.427 83 6.921 83 6.414 83 6 84.098 6 85.441c0 1.343-.424 2.703-.942 3.023-.518.321-1.25 2.71-1.626 5.309-.377 2.6-1.19 5.359-1.808 6.13-1.569 1.96-1.569 54.232 0 56.193.618.772 1.431 3.531 1.808 6.131.376 2.599 1.108 4.988 1.626 5.309.518.32.942 1.68.942 3.023 0 1.343.498 2.441 1.107 2.441s.861.642.559 1.427c-.596 1.554 1.371 6.553 2.584 6.565.412.004.75.502.75 1.107 0 1.288 3.11 8.172 4.021 8.901.344.275.935 1.175 1.313 2 .378.825 1.578 2.85 2.666 4.5 1.088 1.65 2.262 3.578 2.609 4.284.917 1.866 5.174 6.546 15.11 16.609C49.259 231.094 50.06 231.769 56 234.649c.825.4 2.026 1.43 2.669 2.289.644.859 1.544 1.575 2 1.591 1.37.047 14.804 6.872 15.165 7.704.183.424 2.096 1.052 4.25 1.396 2.154.345 3.916 1.019 3.916 1.499 0 .48 1.125.872 2.5.872s2.5.502 2.5 1.117c0 .624.882.886 1.999.594 1.099-.288 2.251-.115 2.559.383.308.498 1.793.906 3.301.906 1.508 0 3.303.563 3.991 1.25 1.688 1.688 51.154 1.803 53.246.123.772-.619 3.992-1.439 7.154-1.822 3.162-.382 5.75-1.113 5.75-1.623s1.098-.928 2.441-.928c1.343 0 2.688-.399 2.989-.887.301-.487 2.128-1.183 4.059-1.545 1.931-.362 3.511-.982 3.511-1.377 0-.77 7.352-4.191 9.007-4.191.546 0 .993-.414.993-.921 0-.506 1.349-1.216 2.999-1.579 1.649-.362 3.568-1.41 4.265-2.329 1.369-1.806 4.011-3.641 7.325-5.087 1.148-.502 3.257-2.301 4.685-3.998 1.428-1.697 3.002-3.086 3.497-3.086.496 0 3.899-3.263 7.564-7.25C231.005 206.14 232 204.94 232 203.678c0-.658.887-1.751 1.97-2.427 1.084-.677 2.895-3.261 4.025-5.741 1.13-2.481 2.388-4.51 2.794-4.51.785 0 4.211-7.328 4.211-9.007 0-.546.392-.993.872-.993s1.16-1.8 1.512-4c.352-2.2 1.084-4 1.628-4 .543 0 .988-1.098.988-2.441 0-1.343.437-2.711.971-3.041.534-.33 1.268-2.842 1.632-5.582.363-2.739 1.051-5.222 1.529-5.517.477-.296.868-2.535.868-4.978 0-2.443.45-4.441 1-4.441.633 0 1-7.186 1-19.559 0-12.785-.346-19.345-1-18.941-.594.367-1-.803-1-2.882 0-1.925-.391-3.741-.868-4.037-.478-.295-1.173-2.835-1.546-5.646-.373-2.81-1.107-5.97-1.632-7.022-.525-1.052-1.404-2.807-1.954-3.899-.55-1.093-1.001-2.555-1.002-3.25-.002-1.612-9.706-20.745-11.584-22.843-.778-.868-1.414-2.036-1.414-2.595 0-.559-.9-1.831-2-2.826-1.1-.995-2-2.092-2-2.437 0-1.026-20.202-21.331-24.189-24.313-2.023-1.513-4.172-2.75-4.776-2.75-.604 0-1.357-.675-1.673-1.5-.317-.825-1.133-1.5-1.814-1.5s-2.055-.903-3.054-2.006c-.998-1.104-2.03-1.792-2.292-1.53s-1.679-.38-3.15-1.427c-1.471-1.047-3.884-2.208-5.363-2.579-1.479-.371-2.689-.966-2.689-1.322 0-.892-4.835-2.953-8.778-3.742-1.795-.359-3.506-1.044-3.802-1.523-.296-.479-1.546-.871-2.779-.871-1.233 0-2.675-.434-3.204-.963-.53-.53-3.658-1.273-6.95-1.652-3.293-.378-6.222-1.042-6.508-1.476-.624-.941-27.462-1.82-37.729-1.235m18.559 10.119c-3.245 8.133-5.071 14.834-7.277 26.707-4.951 26.645-6.741 34.099-9.771 40.681-2.815 6.118-7.521 11.095-13.261 14.028-4.984 2.546-18.078 3.43-28 1.891-16.509-2.561-28.111-3.384-34.039-2.415l-5.961.974 10 4.742c31.969 15.16 40.036 21.026 50.862 36.989 5.593 8.246 1.961 21.385-11.575 41.872-9.737 14.736-13.226 21.533-14.711 28.661-1.383 6.64-.52 7.903 4.118 6.033 5.379-2.169 9.757-5.246 19.806-13.923 5.225-4.512 11.975-9.799 15-11.749 3.025-1.951 8.256-5.731 11.623-8.401 7.673-6.082 9.7-6.841 14.822-5.547 5.388 1.36 12.712 8.851 23.309 23.838 10.047 14.209 16.661 21.577 22.121 24.64 2.269 1.273 4.125 2.065 4.125 1.762 0-.304-1.524-4.27-3.386-8.814-9.2-22.449-14.21-42.995-16.156-66.262l-.669-8 4.437-6c9.946-13.45 21.707-21.713 41.334-29.036 3.817-1.425 9.865-4.004 13.44-5.733l6.5-3.142-4.5-1.363c-3.303-1.001-7.957-1.208-17.5-.781-7.15.32-18.85.849-26 1.176-14.387.657-27.599-1.25-30.621-4.42-1.571-1.648-5.014-10.899-8.262-22.201-4.891-17.018-5.023-18.031-5.171-39.799-.08-11.715-.553-21.708-1.053-22.208-.543-.543-1.981 1.784-3.584 5.8M.42 128.5c-.001 11 .145 15.636.325 10.303.179-5.333.18-14.333.001-20C.568 113.136.421 117.5.42 128.5"/><path fill="#1976D2" fill-opacity=".505" fill-rule="evenodd" d="M120 1c0 .571-3 1-7 1-4.529 0-7 .398-7 1.128 0 .75-1.303.919-3.895.505-2.825-.452-4.039-.246-4.421.748-.334.87-1.471 1.191-3.105.879C93.052 4.968 92 5.223 92 5.883 92 6.498 90.65 7 89 7s-3 .45-3 1-.675 1-1.5 1-1.5.459-1.5 1.019c0 .588-1.058.753-2.5.392-1.54-.387-2.5-.202-2.5.481 0 .609-.675 1.108-1.5 1.108s-1.5.498-1.5 1.107-.638.862-1.417.563a1.523 1.523 0 0 0-1.962.876c-.305.793-1.225 1.16-2.083.83-.846-.324-1.538-.092-1.538.517S67.325 17 66.5 17s-1.5.477-1.5 1.059-.5.75-1.112.372c-.611-.378-1.399-.292-1.75.191-.792 1.09-3.922 3.073-6.857 4.344-1.22.528-2.791 1.877-3.49 2.997-.7 1.12-1.749 2.037-2.332 2.037C48.102 28 26 50.063 26 51.418c0 .56-1.012 1.939-2.25 3.064-2.9 2.638-6.835 9.054-7.166 11.684-.046.367-1.198 2.167-2.559 4C12.664 72 11.53 73.95 11.505 74.5c-.025.55-1.049 3.113-2.275 5.695C8.003 82.777 7 85.563 7 86.386c0 .823-.45 1.774-1 2.114-.55.34-1 1.716-1 3.059C5 92.902 4.498 94 3.883 94c-.654 0-.917 1.044-.634 2.524.266 1.388.093 2.765-.383 3.059-.476.294-.866 2.758-.866 5.476S1.55 110 1 110c-.632 0-1 7-1 19s.368 19 1 19c.55 0 1 1.8 1 4s.486 4 1.079 4c.68 0 .836 1.113.421 3s-.259 3 .421 3C4.514 162 5 163.098 5 164.441c0 1.343.411 2.695.913 3.005.502.311 1.232 2.475 1.622 4.809.391 2.335 1.016 4.47 1.39 4.745.934.687 4.075 7.548 4.075 8.901 0 .605.414 1.099.921 1.099.506 0 1.221 1.371 1.589 3.048.369 1.676 1.529 3.584 2.58 4.24 1.05.656 1.91 1.999 1.91 2.984 0 .985.675 2.05 1.5 2.366.825.317 1.5 1.115 1.5 1.773 0 .658 1.557 2.706 3.461 4.551 1.904 1.845 3.276 3.655 3.05 4.021-.568.918 13.951 15.222 14.695 14.478.329-.33 1.88 1.007 3.446 2.97 1.567 1.963 3.587 3.569 4.491 3.569.904 0 1.902.675 2.219 1.5.316.825 1.239 1.5 2.05 1.5.811 0 2.139.949 2.951 2.108.813 1.16 1.963 1.808 2.557 1.441.594-.367 1.08-.19 1.08.392 0 .582.9 1.059 2 1.059s2 .498 2 1.107.675.848 1.5.531c.825-.316 1.5-.139 1.5.393 0 .533.675.969 1.5.969s1.5.45 1.5 1 .493 1 1.096 1c.602 0 2.361.902 3.909 2.003 1.547 1.102 3.529 1.729 4.404 1.393.875-.335 1.591-.112 1.591.497S85.125 249 86.5 249s2.5.45 2.5 1 1.098 1 2.441 1c1.343 0 2.72.452 3.061 1.004.341.552 1.724.726 3.072.388 1.352-.339 3.096-.081 3.888.576.79.656 3.338 1.055 5.662.887 2.683-.194 4.375.142 4.634.92.624 1.871 32.242 1.745 32.242-.128 0-1.021 1.227-1.236 5-.873 3.567.343 5 .126 5-.758 0-.869 1.022-1.047 3.422-.597 1.985.373 3.69.209 4.059-.388.35-.567 1.735-1.031 3.078-1.031 1.343 0 2.441-.45 2.441-1s1.125-1 2.5-1 2.5-.498 2.5-1.107.642-.861 1.427-.559c1.554.596 6.553-1.371 6.565-2.584.004-.412.683-.75 1.508-.75s1.5-.498 1.5-1.107.675-.848 1.5-.531c.825.316 1.5.139 1.5-.393 0-.533.675-.969 1.5-.969s1.5-.4 1.5-.889c0-.488 1.532-1.176 3.403-1.527 1.872-.351 3.661-1.308 3.975-2.126.314-.819 1.707-1.92 3.096-2.448s2.526-1.422 2.526-1.985c0-.564.787-1.025 1.75-1.025s3.007-1.575 4.543-3.5 3.323-3.5 3.971-3.5c1.492 0 12.736-11.063 12.736-12.532 0-.601 1.35-2.387 3-3.968s3-3.461 3-4.179c0-.717.932-1.87 2.07-2.563 1.139-.692 2.947-3.058 4.018-5.258 2.131-4.377 4.092-7.721 4.985-8.5.478-.417 1.747-3.031 2.427-5 .561-1.625 1.896-4.911 3.107-7.651.766-1.733 1.393-3.652 1.393-4.264 0-.612.397-1.894.883-2.849 2.686-5.279 3.324-7.253 2.794-8.637-.325-.844-.159-1.801.367-2.126.526-.325.956-2.863.956-5.639 0-4.076.289-4.937 1.5-4.472 1.301.499 1.5-1.94 1.5-18.362 0-16.422-.199-18.861-1.5-18.362-1.181.454-1.5-.285-1.5-3.472 0-2.226-.452-4.327-1.004-4.668-.552-.341-.74-1.669-.419-2.95.322-1.281.099-2.63-.496-2.998-.595-.367-1.081-1.74-1.081-3.05 0-1.31-.392-2.624-.871-2.92-.479-.296-1.164-2.007-1.523-3.802-.799-3.995-2.854-8.778-3.771-8.778-.372 0-.973-1.35-1.335-3s-1.073-3-1.579-3c-.507 0-.921-.9-.921-2s-.525-2-1.167-2c-.641 0-.899-.267-.572-.594.724-.724-6.049-11.588-7.922-12.706-.736-.44-1.339-1.313-1.339-1.94 0-1.47-18.395-20.4-23.053-23.725-4.684-3.342-7.121-4.901-8.947-5.722-.825-.371-2.202-1.463-3.059-2.427-.858-.964-2.77-2.056-4.25-2.427-1.48-.372-2.691-1.025-2.691-1.451 0-.893-3.899-2.298-5.75-2.073-.687.084-1.25-.317-1.25-.891 0-.574-.675-1.044-1.5-1.044s-1.5-.499-1.5-1.108c0-.683-.96-.868-2.5-.481-1.791.449-2.5.223-2.5-.798 0-.905-.689-1.245-1.887-.932-1.038.271-2.19.004-2.559-.594-.37-.598-1.77-1.087-3.113-1.087S163 6.501 163 5.892c0-.686-.962-.867-2.522-.476-1.712.43-2.697.177-3.067-.787-.394-1.028-1.631-1.275-4.478-.893-2.571.345-3.933.135-3.933-.604C149 2.406 146.671 2 142.5 2c-3.667 0-6.5-.436-6.5-1 0-.583-3.333-1-8-1s-8 .417-8 1m10.99 5.75c-3.978 8.985-6.07 16.799-9.975 37.25-5.767 30.204-7.028 34.296-12.609 40.929-7.203 8.56-19.053 10.593-41.755 7.163-19.245-2.907-34.151-2.556-34.151.804 0 .719 7.2 4.637 16 8.707 18.484 8.549 27.239 14.187 34.933 22.498 10.169 10.984 11.031 12.49 11.05 19.306.023 8.415-3.627 16.734-15.09 34.385-9.75 15.014-12.862 21.721-13.976 30.123L64.742 213l2.879-.012c4.236-.017 13.172-5.469 23.112-14.101 4.822-4.187 11.917-9.793 15.767-12.457 3.85-2.664 9.693-7.001 12.986-9.637 7.039-5.637 10.574-6.12 17.043-2.329 4.138 2.425 5.652 4.249 23.691 28.536 7.972 10.733 12.08 14.892 19.137 19.372 4.919 3.123 4.955.669.159-10.779-8.557-20.424-13.899-41.634-15.512-61.593-1.057-13.071-.572-14.254 10.4-25.377 8.815-8.936 16.301-13.433 33.141-19.909 4.974-1.913 11.927-4.933 15.451-6.712 5.795-2.925 6.235-3.36 4.609-4.549-2.646-1.935-13.545-2.818-25.813-2.092l-21.546 1.276c-8.185.485-13.103.214-20.593-1.135l-9.84-1.772-1.844-4.303c-1.669-3.894-5.985-17.61-8.788-27.927-2.364-8.705-3.349-22.171-2.678-36.647.66-14.271.055-18.853-2.491-18.853-.505 0-1.865 2.138-3.022 4.75M.419 129c0 10.725.147 15.113.327 9.75.179-5.363.179-14.138 0-19.5-.18-5.362-.327-.975-.327 9.75"/><path fill="#1976D2" fill-opacity=".257" fill-rule="evenodd" d="M123.75.732c2.337.211 6.162.211 8.5 0 2.338-.21.425-.383-4.25-.383s-6.588.173-4.25.383m-7.614 57.396c-.075 1.445-.76 3.145-1.523 3.778-1.004.834-13.856 1.127-46.6 1.064L22.8 62.882l-2.5 3.309C15.067 73.114 5 97.181 5 102.766c0 1.164-.45 2.394-1 2.734-.55.34-1.061 2.954-1.136 5.809-.075 2.855-.338 4.066-.585 2.691-.247-1.375-.918-2.95-1.492-3.5-.724-.694-.799 1.451-.246 7 .916 9.177.897 13.305-.101 22.75-.485 4.585-.369 6.75.36 6.75.59 0 1.255-1.463 1.477-3.25.28-2.257.452-1.665.563 1.941.088 2.855.61 5.469 1.16 5.809.55.34 1 1.57 1 2.734 0 6.222 11.437 32.265 16.915 38.516l2.848 3.25h20.619c15.827 0 20.618.29 20.62 1.25.001.688 1.389-1.382 3.085-4.598 1.695-3.216 6.481-10.797 10.635-16.846 12.176-17.731 16.598-31.116 12.872-38.966-2.177-4.588-13.33-16.742-19.56-21.315C68.839 112.446 47.154 101 45.515 101c-1.945 0-15.528-7.46-15.227-8.363.594-1.784 7.652-3.477 14.843-3.56C48.778 89.035 57.719 89.9 65 91c27.307 4.125 38.486 1.594 45.415-10.284 2.867-4.915 6.919-19.712 6.29-22.973-.386-2.002-.447-1.961-.569.385m25.349 3.122c1.72 7.383 4.333 16.189 6.614 22.285l1.946 5.201 6.228 1.358c6.457 1.409 15.639 1.577 48.727.891 19.144-.397 25 .293 25 2.948 0 1.626-7.667 5.572-23.433 12.061-8.213 3.38-17.953 8.1-21.645 10.488-7.001 4.529-19.505 18.009-20.544 22.147-.706 2.814 1.195 21.352 3.217 31.371 1.66 8.223 5.398 21.235 7.899 27.5 1.351 3.383 1.525 3.537 1.126 1l-.471-3 27.466.281c29.69.304 27.923.604 32.192-5.469 5.62-7.995 15.193-31.476 15.193-37.266 0-2.767 1.763-2.607 2.255.204.217 1.238.28-1.575.14-6.25s-.027-7.15.252-5.5c1.339 7.921 2.142 3.079 2.142-12.905 0-9.683-.402-17.595-.894-17.595s-.968 1.688-1.058 3.75c-.131 3.004-.282 2.656-.763-1.75-.331-3.025-.215-6.047.257-6.716.472-.669.626-1.794.342-2.5-.324-.807-.544-.634-.594.466-.123 2.721-2.079 2.059-2.079-.703 0-1.349-.393-3.487-.874-4.75s-1.678-4.772-2.66-7.797c-.983-3.025-2.901-7.975-4.263-11C239.225 71.167 231 58.986 231 61.929c0 .745-13.248 1.071-43.551 1.071h-43.551l-1.462-3.5c-2.06-4.929-2.372-4.354-.951 1.75M4.079 96.583c.048 1.165.285 1.402.604.605.289-.722.253-1.585-.079-1.917-.332-.332-.568.258-.525 1.312m247 1c.048 1.165.285 1.402.604.605.289-.722.253-1.585-.079-1.917-.332-.332-.568.258-.525 1.312m-249 5c.048 1.165.285 1.402.604.605.289-.722.253-1.585-.079-1.917-.332-.332-.568.258-.525 1.312m0 51c.048 1.165.285 1.402.604.605.289-.722.253-1.585-.079-1.917-.332-.332-.568.258-.525 1.312M251.158 160c0 1.375.227 1.938.504 1.25.278-.687.278-1.812 0-2.5-.277-.687-.504-.125-.504 1.25m-247.079.583c.048 1.165.285 1.402.604.605.289-.722.253-1.585-.079-1.917-.332-.332-.568.258-.525 1.312m112.711 19.228c-4.791 3.679-11.653 8.837-15.25 11.463-3.597 2.625-6.54 5.268-6.54 5.872 0 .758.442.732 1.428-.086 1.861-1.545 55.884-1.624 56.398-.082.187.562.782 1.022 1.321 1.022 1.258 0-6.335-10.861-12.027-17.203-9.062-10.097-13.255-10.26-25.33-.986m-52.711 21.772c.048 1.165.285 1.402.604.605.289-.722.253-1.585-.079-1.917-.332-.332-.568.258-.525 1.312m49.671 54.123c1.237.238 3.263.238 4.5 0 1.237-.239.225-.434-2.25-.434s-3.487.195-2.25.434m24 0c1.238.238 3.262.238 4.5 0 1.238-.239.225-.434-2.25-.434s-3.488.195-2.25.434"/></svg>